<?xml version="1.0" standalone="no"?><svg xmlns="http://www.w3.org/2000/svg" viewBox="0 0 1440 320"><path fill="#50e29b" fill-opacity="1" d="M0,160L30,144C60,128,120,96,180,117.3C240,139,300,213,360,202.7C420,192,480,96,540,64C600,32,660,64,720,74.7C780,85,840,75,900,112C960,149,1020,235,1080,229.3C1140,224,1200,128,1260,90.7C1320,53,1380,75,1410,85.3L1440,96L1440,0L1410,0C1380,0,1320,0,1260,0C1200,0,1140,0,1080,0C1020,0,960,0,900,0C840,0,780,0,720,0C660,0,600,0,540,0C480,0,420,0,360,0C300,0,240,0,180,0C120,0,60,0,30,0L0,0Z"></path></svg>